<svg width="156" height="20" viewBox="0 0 156 20" fill="none" xmlns="http://www.w3.org/2000/svg">
<path d="M148.759 11.1447L148.694 7.32181L150.098 7.23542C150.919 7.20662 151.595 6.97624 152.128 6.54428C152.661 6.09791 152.927 5.47156 152.927 4.66523C152.927 3.94528 152.675 3.35493 152.171 2.89417C151.682 2.43341 151.041 2.20302 150.249 2.20302C149.687 2.20302 149.198 2.33981 148.78 2.61339C148.363 2.88697 148.075 3.22534 147.916 3.62851L145.692 2.98056C145.98 2.08783 146.52 1.36789 147.312 0.820734C148.118 0.273578 149.097 0 150.249 0C151.228 0 152.092 0.201584 152.841 0.604752C153.604 0.993521 154.201 1.54068 154.633 2.24622C155.065 2.93736 155.281 3.7437 155.281 4.66523C155.281 5.44276 155.109 6.14111 154.763 6.76026C154.417 7.37941 153.928 7.87617 153.294 8.25054C152.675 8.62491 151.955 8.85529 151.135 8.94169L151.091 11.1447H148.759ZM149.925 15.6803C149.493 15.6803 149.126 15.5364 148.824 15.2484C148.536 14.946 148.392 14.586 148.392 14.1685C148.392 13.7365 148.536 13.3765 148.824 13.0886C149.126 12.7862 149.493 12.635 149.925 12.635C150.343 12.635 150.695 12.7862 150.983 13.0886C151.286 13.3765 151.437 13.7365 151.437 14.1685C151.437 14.586 151.286 14.946 150.983 15.2484C150.695 15.5364 150.343 15.6803 149.925 15.6803Z" fill="#4A545E"/>
<path d="M138.887 15.6373C137.807 15.6373 136.843 15.3997 135.993 14.9246C135.158 14.435 134.503 13.7655 134.028 12.9159C133.552 12.0664 133.315 11.0873 133.315 9.97857C133.315 8.86986 133.545 7.89074 134.006 7.04121C134.481 6.19167 135.136 5.52933 135.971 5.05416C136.807 4.5646 137.764 4.31982 138.844 4.31982C139.924 4.31982 140.881 4.5646 141.717 5.05416C142.552 5.52933 143.2 6.19167 143.66 7.04121C144.136 7.89074 144.373 8.86986 144.373 9.97857C144.373 11.0873 144.143 12.0664 143.682 12.9159C143.221 13.7655 142.573 14.435 141.738 14.9246C140.903 15.3997 139.953 15.6373 138.887 15.6373ZM138.887 13.4127C139.478 13.4127 140.003 13.2687 140.464 12.9807C140.925 12.6784 141.285 12.2752 141.544 11.7712C141.803 11.2529 141.933 10.6553 141.933 9.97857C141.933 9.30183 141.796 8.71147 141.522 8.20751C141.263 7.68915 140.903 7.28599 140.442 6.99801C139.982 6.69563 139.449 6.54445 138.844 6.54445C138.239 6.54445 137.707 6.68843 137.246 6.97641C136.785 7.26439 136.425 7.66756 136.166 8.18592C135.907 8.70427 135.777 9.30183 135.777 9.97857C135.777 10.6553 135.907 11.2529 136.166 11.7712C136.439 12.2752 136.807 12.6784 137.267 12.9807C137.743 13.2687 138.282 13.4127 138.887 13.4127Z" fill="#4A545E"/>
<path d="M115.253 15.3781V4.579H117.521L117.629 6.02609C117.96 5.46453 118.385 5.03977 118.903 4.75179C119.422 4.46381 120.012 4.31982 120.674 4.31982C121.538 4.31982 122.273 4.51421 122.877 4.90298C123.482 5.29175 123.921 5.8821 124.195 6.67404C124.512 5.9109 124.958 5.32774 125.534 4.92458C126.11 4.52141 126.787 4.31982 127.564 4.31982C128.817 4.31982 129.782 4.72299 130.458 5.52933C131.135 6.32126 131.466 7.54517 131.452 9.20103V15.3781H129.054V9.84898C129.054 8.98505 128.961 8.3227 128.774 7.86194C128.586 7.38678 128.334 7.0556 128.018 6.86842C127.701 6.68123 127.334 6.58764 126.916 6.58764C126.167 6.57324 125.584 6.83962 125.167 7.38678C124.764 7.93394 124.562 8.71867 124.562 9.74099V15.3781H122.143V9.84898C122.143 8.98505 122.049 8.3227 121.862 7.86194C121.689 7.38678 121.445 7.0556 121.128 6.86842C120.811 6.68123 120.444 6.58764 120.026 6.58764C119.278 6.57324 118.694 6.83962 118.277 7.38678C117.874 7.93394 117.672 8.71867 117.672 9.74099V15.3781H115.253Z" fill="#4A545E"/>
<path d="M110.514 15.3781L110.406 13.3479V9.82738C110.406 9.09304 110.327 8.48109 110.169 7.99153C110.025 7.48757 109.78 7.106 109.434 6.84682C109.103 6.57324 108.657 6.43645 108.095 6.43645C107.577 6.43645 107.123 6.54445 106.734 6.76043C106.346 6.97641 106.015 7.31479 105.741 7.77555L103.624 6.99801C103.855 6.52285 104.157 6.08368 104.531 5.68052C104.92 5.26295 105.403 4.93178 105.979 4.687C106.569 4.44221 107.274 4.31982 108.095 4.31982C109.146 4.31982 110.025 4.52861 110.73 4.94617C111.436 5.34934 111.954 5.9325 112.285 6.69563C112.631 7.45877 112.804 8.3803 112.804 9.46021L112.739 15.3781H110.514ZM107.404 15.6373C106.108 15.6373 105.1 15.3493 104.38 14.7734C103.675 14.1974 103.322 13.3839 103.322 12.3328C103.322 11.2097 103.696 10.3529 104.445 9.76259C105.208 9.17224 106.267 8.87706 107.62 8.87706H110.514V10.7345H108.398C107.433 10.7345 106.756 10.8713 106.367 11.1449C105.979 11.4041 105.784 11.7784 105.784 12.268C105.784 12.6856 105.95 13.0167 106.281 13.2615C106.626 13.4919 107.102 13.6071 107.706 13.6071C108.254 13.6071 108.729 13.4847 109.132 13.2399C109.535 12.9951 109.845 12.6712 110.061 12.268C110.291 11.8648 110.406 11.4113 110.406 10.9073H111.119C111.119 12.376 110.824 13.5351 110.233 14.3846C109.643 15.2198 108.7 15.6373 107.404 15.6373Z" fill="#4A545E"/>
<path d="M99.8934 15.6371C98.7559 15.6371 97.8847 15.3563 97.28 14.7948C96.6896 14.2188 96.3945 13.3981 96.3945 12.3326V1.20947H98.7919V11.879C98.7919 12.383 98.9071 12.7645 99.1374 13.0237C99.3822 13.2829 99.735 13.4125 100.196 13.4125C100.34 13.4125 100.498 13.3837 100.671 13.3261C100.844 13.2685 101.038 13.1605 101.254 13.0021L102.14 14.838C101.765 15.0972 101.391 15.2915 101.017 15.4211C100.642 15.5651 100.268 15.6371 99.8934 15.6371ZM94.6018 6.65224V4.5788H101.708V6.65224H94.6018Z" fill="#4A545E"/>
<path d="M89.4653 15.6373C88.7453 15.6373 88.083 15.5293 87.4782 15.3133C86.8735 15.0974 86.3551 14.795 85.9231 14.4062C85.4912 14.0031 85.16 13.5351 84.9296 13.0023L87.0247 12.0736C87.2406 12.4768 87.5574 12.8151 87.975 13.0887C88.407 13.3623 88.8821 13.4991 89.4005 13.4991C89.962 13.4991 90.4084 13.4055 90.7396 13.2183C91.0851 13.0167 91.2579 12.7432 91.2579 12.3976C91.2579 12.0664 91.1283 11.8144 90.8692 11.6416C90.61 11.4545 90.2428 11.3033 89.7676 11.1881L88.7525 10.9073C87.7302 10.6481 86.9311 10.2378 86.3551 9.6762C85.7792 9.10024 85.4912 8.44509 85.4912 7.71075C85.4912 6.63084 85.8368 5.79571 86.5279 5.20535C87.2334 4.615 88.2414 4.31982 89.5517 4.31982C90.214 4.31982 90.8188 4.42062 91.3659 4.6222C91.9275 4.80939 92.4098 5.08296 92.813 5.44293C93.2162 5.78851 93.4969 6.19887 93.6553 6.67404L91.6467 7.58116C91.5027 7.22119 91.2291 6.94761 90.826 6.76043C90.4228 6.55884 89.9764 6.45805 89.4869 6.45805C88.9973 6.45805 88.6157 6.56605 88.3422 6.78203C88.0686 6.98361 87.9318 7.27159 87.9318 7.64596C87.9318 7.86194 88.0542 8.06352 88.299 8.25071C88.5437 8.4235 88.8965 8.56748 89.3573 8.68268L90.6316 8.98505C91.3371 9.15784 91.9131 9.43142 92.3594 9.80579C92.8058 10.1658 93.137 10.5761 93.3529 11.0369C93.5689 11.4833 93.6769 11.9368 93.6769 12.3976C93.6769 13.0455 93.4897 13.6143 93.1154 14.1038C92.7554 14.5934 92.2586 14.975 91.6251 15.2485C90.9915 15.5077 90.2716 15.6373 89.4653 15.6373Z" fill="#4A545E"/>
<path d="M78.4127 15.637C77.3616 15.637 76.4256 15.3994 75.6049 14.9243C74.7986 14.4347 74.1578 13.7652 73.6827 12.9156C73.2219 12.0661 72.9915 11.087 72.9915 9.97826C72.9915 8.86955 73.2291 7.89042 73.7043 7.04089C74.1794 6.19136 74.8274 5.52901 75.6481 5.05385C76.4832 4.56429 77.4336 4.31951 78.4991 4.31951C79.4638 4.31951 80.3349 4.57149 81.1125 5.07545C81.89 5.56501 82.502 6.27775 82.9483 7.21368C83.4091 8.1496 83.6395 9.26551 83.6395 10.5614H75.1513L75.4753 10.259C75.4753 10.9214 75.6193 11.4973 75.9073 11.9869C76.1953 12.4621 76.5768 12.8292 77.052 13.0884C77.5272 13.3476 78.0527 13.4772 78.6287 13.4772C79.291 13.4772 79.8382 13.3332 80.2701 13.0452C80.7021 12.7428 81.0405 12.3541 81.2853 11.8789L83.4235 12.786C83.1211 13.362 82.7323 13.8659 82.2572 14.2979C81.7964 14.7299 81.2421 15.0611 80.5941 15.2914C79.9606 15.5218 79.2334 15.637 78.4127 15.637ZM75.6265 9.00633L75.2809 8.70396H81.3716L81.0477 9.00633C81.0477 8.41598 80.9181 7.93362 80.6589 7.55925C80.3997 7.17048 80.0685 6.8825 79.6654 6.69532C79.2766 6.49374 78.8662 6.39294 78.4343 6.39294C78.0023 6.39294 77.5704 6.49374 77.1384 6.69532C76.7064 6.8825 76.3465 7.17048 76.0585 7.55925C75.7705 7.93362 75.6265 8.41598 75.6265 9.00633ZM76.836 3.1748L79.3414 0.259033H82.1492L79.363 3.1748H76.836Z" fill="#4A545E"/>
<path d="M67.3484 9.63284C67.3484 8.46653 67.5716 7.50901 68.0179 6.76027C68.4643 6.01153 69.0403 5.45717 69.7458 5.0972C70.4657 4.72283 71.2145 4.53564 71.992 4.53564V6.84666C71.3297 6.84666 70.7033 6.94025 70.113 7.12744C69.537 7.30022 69.0691 7.5882 68.7091 7.99137C68.3491 8.39454 68.1691 8.92729 68.1691 9.58964L67.3484 9.63284ZM65.7501 15.378V4.57884H68.1691V15.378H65.7501Z" fill="#4A545E"/>
<path d="M53.4429 15.3778V0.259033H58.7777C59.8144 0.259033 60.7288 0.467817 61.5207 0.885384C62.3126 1.30295 62.9318 1.8861 63.3781 2.63484C63.8245 3.36918 64.0477 4.22592 64.0477 5.20504C64.0477 6.15536 63.8389 7.00489 63.4213 7.75363C63.0038 8.50237 62.4206 9.09273 61.6719 9.52469C60.9375 9.94226 60.0808 10.151 59.1017 10.151H55.9483V15.3778H53.4429ZM55.9483 7.84003H59.0585C59.7784 7.84003 60.3688 7.59525 60.8295 7.10569C61.2903 6.61613 61.5207 5.98258 61.5207 5.20504C61.5207 4.4131 61.2615 3.77235 60.7431 3.28279C60.2248 2.79323 59.5552 2.54845 58.7345 2.54845H55.9483V7.84003Z" fill="#4A545E"/>
<path d="M45.8677 15.637C44.8166 15.637 43.8807 15.3994 43.0599 14.9243C42.2536 14.4347 41.6128 13.7652 41.1377 12.9156C40.6769 12.0661 40.4465 11.087 40.4465 9.97826C40.4465 8.86955 40.6841 7.89042 41.1593 7.04089C41.6344 6.19136 42.2824 5.52901 43.1031 5.05385C43.9383 4.56429 44.8886 4.31951 45.9541 4.31951C46.9188 4.31951 47.7899 4.57149 48.5675 5.07545C49.345 5.56501 49.957 6.27775 50.4033 7.21368C50.8641 8.1496 51.0945 9.26551 51.0945 10.5614H42.6064L42.9303 10.259C42.9303 10.9214 43.0743 11.4973 43.3623 11.9869C43.6503 12.4621 44.0318 12.8292 44.507 13.0884C44.9822 13.3476 45.5077 13.4772 46.0837 13.4772C46.746 13.4772 47.2932 13.3332 47.7252 13.0452C48.1571 12.7428 48.4955 12.3541 48.7403 11.8789L50.8785 12.786C50.5761 13.362 50.1874 13.8659 49.7122 14.2979C49.2514 14.7299 48.6971 15.0611 48.0491 15.2914C47.4156 15.5218 46.6884 15.637 45.8677 15.637ZM43.0815 9.00633L42.7359 8.70396H48.8267L48.5027 9.00633C48.5027 8.41598 48.3731 7.93362 48.1139 7.55925C47.8547 7.17048 47.5236 6.8825 47.1204 6.69532C46.7316 6.49374 46.3213 6.39294 45.8893 6.39294C45.4573 6.39294 45.0254 6.49374 44.5934 6.69532C44.1614 6.8825 43.8015 7.17048 43.5135 7.55925C43.2255 7.93362 43.0815 8.41598 43.0815 9.00633ZM44.291 3.1748L46.7964 0.259033H49.6042L46.818 3.1748H44.291Z" fill="#0052FF"/>
<path d="M36.0955 15.378L35.9659 13.391V4.57886H38.3633V15.378H36.0955ZM28.6225 10.108V4.57886H31.0415V10.108H28.6225ZM31.0415 10.108C31.0415 10.9575 31.1423 11.6199 31.3439 12.0951C31.5455 12.5702 31.819 12.9014 32.1646 13.0886C32.5246 13.2758 32.935 13.3694 33.3957 13.3694C34.2165 13.3838 34.85 13.1174 35.2964 12.5702C35.7427 12.0231 35.9659 11.2383 35.9659 10.216H36.873C36.873 11.3535 36.7003 12.3326 36.3547 13.1534C36.0235 13.9597 35.5483 14.5789 34.9292 15.0108C34.3244 15.4284 33.5901 15.6372 32.7262 15.6372C31.8766 15.6372 31.1423 15.4644 30.5231 15.1188C29.9184 14.7732 29.4504 14.2333 29.1193 13.4989C28.7881 12.7646 28.6225 11.8215 28.6225 10.6696V10.108H31.0415Z" fill="#0052FF"/>
<path d="M19.0726 15.6371C17.5751 15.6371 16.2504 15.306 15.0985 14.6436C13.9466 13.9813 13.0395 13.0598 12.3771 11.8791C11.7292 10.6983 11.4052 9.34485 11.4052 7.81857C11.4052 6.66667 11.5924 5.61555 11.9668 4.66523C12.3411 3.7149 12.8667 2.89417 13.5434 2.20302C14.2202 1.49748 15.0193 0.957523 15.9409 0.583152C16.8768 0.194384 17.8991 0 19.0078 0C20.5053 0 21.8228 0.338373 22.9603 1.01512C24.1122 1.67747 25.0049 2.59899 25.6385 3.7797C26.2864 4.946 26.6104 6.2923 26.6104 7.81857C26.6104 9.34485 26.2864 10.6983 25.6385 11.8791C25.0049 13.0598 24.1194 13.9813 22.9819 14.6436C21.8588 15.306 20.5557 15.6371 19.0726 15.6371ZM24.9473 16.2635L19.4398 10.6911L21.0596 9.13607L26.524 14.6868L24.9473 16.2635ZM19.0726 13.3477C20.0517 13.3477 20.9157 13.1102 21.6644 12.635C22.4131 12.1598 22.9963 11.5119 23.4139 10.6911C23.8458 9.85601 24.0618 8.89849 24.0618 7.81857C24.0618 6.73866 23.8458 5.78834 23.4139 4.9676C22.9819 4.13247 22.3843 3.47732 21.6212 3.00216C20.8725 2.527 20.0013 2.28942 19.0078 2.28942C18.0287 2.28942 17.1576 2.527 16.3944 3.00216C15.6457 3.47732 15.0481 4.13247 14.6018 4.9676C14.1698 5.78834 13.9538 6.73866 13.9538 7.81857C13.9538 8.89849 14.1698 9.85601 14.6018 10.6911C15.0481 11.5119 15.6529 12.1598 16.416 12.635C17.1936 13.1102 18.0791 13.3477 19.0726 13.3477Z" fill="#0052FF"/>
<path d="M7.26278 8.85533L7.32758 12.6782L5.92369 12.743C5.08856 12.7718 4.40461 13.0094 3.87185 13.4558C3.3535 13.9021 3.09432 14.5285 3.09432 15.3348C3.09432 16.0548 3.3391 16.6451 3.82866 17.1059C4.33262 17.5666 4.97337 17.797 5.7509 17.797C6.32686 17.797 6.82362 17.6602 7.24118 17.3867C7.65875 17.1131 7.93953 16.7747 8.08352 16.3715L10.3081 17.0195C10.0346 17.9122 9.4946 18.6321 8.68827 19.1793C7.88193 19.7265 6.90281 20 5.7509 20C4.77178 20 3.90065 19.7985 3.13751 19.3953C2.38877 18.9921 1.79842 18.4378 1.36645 17.7322C0.934489 17.0411 0.718506 16.2419 0.718506 15.3348C0.718506 14.5429 0.891292 13.8445 1.23686 13.2398C1.58244 12.6206 2.0648 12.1239 2.68395 11.7495C3.3175 11.3751 4.05184 11.1447 4.88697 11.0584L4.90857 8.85533H7.26278ZM6.07488 4.2981C6.50684 4.2981 6.86681 4.44928 7.15479 4.75166C7.45717 5.03964 7.60835 5.39961 7.60835 5.83157C7.60835 6.24914 7.45717 6.60911 7.15479 6.91149C6.86681 7.19946 6.50684 7.34345 6.07488 7.34345C5.65731 7.34345 5.29734 7.19946 4.99496 6.91149C4.70699 6.60911 4.563 6.24914 4.563 5.83157C4.563 5.39961 4.70699 5.03964 4.99496 4.75166C5.29734 4.44928 5.65731 4.2981 6.07488 4.2981Z" fill="#0052FF"/>
</svg>
